<?xml version="1.0" standalone="no"?><!DOCTYPE svg PUBLIC "-//W3C//DTD SVG 1.1//EN" "http://www.w3.org/Graphics/SVG/1.1/DTD/svg11.dtd"><svg t="1551082759653" class="icon" style="" viewBox="0 0 3645 1024" version="1.1" xmlns="http://www.w3.org/2000/svg" p-id="2473" xmlns:xlink="http://www.w3.org/1999/xlink" width="711.9140625" height="200"><defs><style type="text/css"></style></defs><path d="M2114.44224365-1126.06020641c-21.08345917 155.91952852-30.15424948 313.80031065-42.1669164 470.70046599-17.16095383 224.56334768-33.83159618 449.12669345-53.44411511 673.44488446-17.16095383 197.59613342-34.32190957 395.92773506-66.43741074 591.5626167C1900.42062648 928.59635642 1809.95787998 1240.43541537 1711.8952834 1547.37134414a3403.75274005 3403.75274005 0 0 1-141.94560991 378.03131109 1336.83835359 1336.83835359 0 0 1-80.90164276 141.45529649A1375.08276657 1375.08276657 0 0 1 1393.1918425 2212.48090833a205.44114021 205.44114021 0 0 1-49.0312983 49.03129829 7139.44737332 7139.44737332 0 0 0 315.51640567-750.42402379 6708.95257202 6708.95257202 0 0 0 202.49926364-778.37186292c40.94113478-194.40909821 70.35991414-388.08272822 92.91430969-585.43370304C1981.56742406-86.10636442 2006.08307322-319.98565909 2033.05028743-553.37463849c20.34798902-178.96423937 37.26378618-360.13488718 73.54694747-536.64756334q3.43218999-18.14158063 7.84500875-36.03800458z" fill="#231F20" p-id="2474"></path><path d="M2235.30439439-156.46627856a136.55216629 136.55216629 0 0 1 7.10953861 88.25633808 245.15649151 245.15649151 0 0 1-47.07004659 82.86289447 1078.68856647 1078.68856647 0 0 1-129.93294105 129.19747099 192.69300321 192.69300321 0 0 0-65.21162728 80.65648607 695.01865697 695.01865697 0 0 1 7.35469533-84.33383279 56.38599363 56.38599363 0 0 1 20.34798904-40.20566469 431.23026949 431.23026949 0 0 1 32.85096938-34.07675287c45.84426501-40.69597809 96.59165831-78.94039106 131.15872267-130.17809779a278.74293097 278.74293097 0 0 0 43.39269989-92.17884147z" fill="#EE4358" p-id="2475"></path><path d="M2231.38189098-252.07731007a235.8405464 235.8405464 0 0 1-27.94784107 171.60954409c-30.88971766 51.4828634-77.95976425 88.50149289-121.35246415 128.95231616a931.59467155 931.59467155 0 0 0-71.09538235 71.58569573 780.08795985 780.08795985 0 0 1 8.33532023-86.0499297 320.17437917 320.17437917 0 0 1 2.69672181-46.33457648c3.92250343-12.99329371 21.57377065-19.36736223 32.85097129-27.45752764a656.03877389 656.03877389 0 0 0 135.81669614-120.37183736 147.09389488 147.09389488 0 0 0 40.6959781-91.9336848z" fill="#C32164" p-id="2476"></path><path d="M2232.6076726-315.817999a242.21461491 242.21461491 0 0 1-4.41281682 92.91431159 241.47914479 241.47914479 0 0 1-53.68927181 84.33383275 854.12521879 854.12521879 0 0 1-151.75186843 120.12668261c0-24.51564915 4.90313023-49.03129831 6.37406851-73.54694938 0-12.99329371-2.20640839-24.51564915 4.9031302-35.79284788a163.76453727 163.76453727 0 0 1 28.92846598-26.23174416c37.5089429-33.58643947 78.45007767-63.49553225 114.73323893-98.0625966a427.30776609 427.30776609 0 0 0 54.91505344-63.74068893z" fill="#EE4358" p-id="2477"></path><path d="M2228.68516917-383.72634617c31.13487435 57.12146181-26.72205756 110.32042212-67.41803563 145.62295662S2071.53985714-165.53706889 2030.59872234-124.5959341c2.20640839-24.51564915-1.96125171-66.92772225 12.01266885-85.80477298a338.80627324 338.80627324 0 0 1 68.64381725-53.19895839 545.71835173 545.71835173 0 0 0 117.42996073-120.1266807z" fill="#C32164" p-id="2478"></path><path d="M2211.27905863-520.52366913c30.64456096 49.03129831 41.67660299 94.38524992 10.0514152 147.09389491a414.31447238 414.31447238 0 0 1-113.99776882 112.28167385c-22.79955412 16.67064235-45.84426501 32.60581267-68.39866052 49.03129829l4.41281681-41.43144629c1.4709383-14.95454544-1.96125171-29.41877936 8.5804769-40.20566468 23.28986755-23.04471085 52.70864501-38.24441298 75.26304246-63.00521883a295.65873001 295.65873001 0 0 0 84.08867797-163.76453725z" fill="#EE4358" p-id="2479"></path><path d="M2206.13077172-592.1093649a249.56931024 249.56931024 0 0 1-30.88971767 174.5514226 418.97244588 418.97244588 0 0 1-129.93294105 126.74590587 793.57156506 793.57156506 0 0 1 6.86438191-90.2175879c2.69672179-24.51564915 35.30253446-44.61848148 51.9731768-62.51490733a439.81074834 439.81074834 0 0 0 101.98510001-148.56483324z" fill="#C32164" p-id="2480"></path><path d="M2211.27905863-686.49461476c24.51564915 118.90089905-73.54694746 224.31819097-157.88078212 294.1877917 0-14.95454544 0-31.38003107 1.2257835-46.57973511a131.40387938 131.40387938 0 0 1 5.14828499-41.67660299 227.01491276 227.01491276 0 0 1 24.51564913-26.72205755c9.56110371-11.27719872 18.38673733-22.79955412 27.45752769-34.32190956a1336.83835359 1336.83835359 0 0 0 99.53353681-144.88748649z" fill="#EE4358" p-id="2481"></path><path d="M2211.27905863-792.64737682c43.14754319 49.03129831-7.35469534 122.57824574-36.28316129 165.97094566a859.2735057 859.2735057 0 0 1-114.9783956 147.09389682 713.1602357 713.1602357 0 0 0 6.8643819-82.37258299c1.22578159-27.70268437 28.68330926-57.36661852 44.3733248-80.16617268a1655.5417926 1655.5417926 0 0 0 100.02385019-150.52608681z" fill="#C32164" p-id="2482"></path><path d="M2212.74999695-869.62651427a100.75931841 100.75931841 0 0 1-3.43219 78.20492097 413.33384556 413.33384556 0 0 1-41.18629148 67.41803564c-34.56706626 49.03129831-67.66319235 98.06259658-100.26900502 147.0938949 1.71609501-14.95454544 1.22578159-29.66393603 1.96125169-44.6184815a98.06259661 98.06259661 0 0 1 3.67734672-37.75409956 229.95678938 229.95678938 0 0 1 30.64456285-32.60581457c8.3353202-9.31594705 16.67064235-18.87705075 24.51564915-28.68330927a404.26305524 404.26305524 0 0 0 84.08867609-149.05514661z" fill="#F8E47F" p-id="2483"></path><path d="M2203.43404991-925.52219447c24.51564915 51.72802011-2.94187849 105.90760534-31.87034444 150.28093011a647.94861038 647.94861038 0 0 1-49.03129831 63.98584373 266.48510737 266.48510737 0 0 1-49.0312983 52.7086469c2.94187849-24.51564916 4.16766013-51.72802011 6.37406848-77.71460947s26.47690084-45.10879487 44.61848153-63.25037552c32.36065788-32.85096935 72.07600914-78.69523438 78.94039104-126.01043575z" fill="#F3C67A" p-id="2484"></path><path d="M2182.10543599-994.41116843A94.14009322 94.14009322 0 0 1 2202.20826832-925.52219449a165.48063228 165.48063228 0 0 1-29.90909276 67.41803565c-24.51564915 38.48956967-63.25037553 69.13413065-92.669153 104.92697851a493.99033163 493.99033163 0 0 1 6.37406849-70.85022753 46.08941981 46.08941981 0 0 1 1.71609503-16.67064043c2.20640839-3.1870352 9.80626042-4.41281682 13.97392054-6.61922524a128.95231425 128.95231425 0 0 0 27.45752576-21.32861585 176.75783098 176.75783098 0 0 0 52.95380361-125.76527905z" fill="#F8E47F" p-id="2485"></path><path d="M2170.33792385-1055.45513557c30.88971766 76.97913937-2.94187849 179.2093961-82.37258107 211.07974057 3.67734672-19.61251893 3.1870352-40.20566467 5.39344172-59.81818554 0-10.29657191 0-20.59314573 5.39344363-27.94783916a235.8405464 235.8405464 0 0 1 24.51564911-19.36736415 196.12519322 196.12519322 0 0 0 47.07004661-103.94635172z" fill="#F3C67A" p-id="2486"></path><path d="M2159.55103853-1087.32548003c23.04471085 17.16095383 3.1870352 68.15350576-6.37406849 88.25633811a139.9843563 139.9843563 0 0 1-58.59240205 69.62444404 193.91878482 193.91878482 0 0 0 4.65797353-37.75410149 31.13487435 31.13487435 0 0 1 4.16766008-14.95454542c3.92250341-6.1289118 10.29657191-12.50298033 14.70938874-18.63189406a229.71163268 229.71163268 0 0 0 41.43144819-86.54024118z" fill="#F8E47F" p-id="2487"></path><path d="M2138.22242268-1108.65409396c54.91505343 0-18.38673733 114.24292555-38.48956778 128.70715758a189.50596798 189.50596798 0 0 1 13.23845043-71.58569576 439.56559162 439.56559162 0 0 0 25.25111735-57.12146182z" fill="#F8E47F" p-id="2488"></path><path d="M2106.3520801-1039.76512002c0-16.67064235 2.69672186-33.09612606 3.43219001-49.03129829 0-12.99329371-1.4709383-43.3926999 17.89642397-35.30253641 27.70268436 11.03204202-14.21907724 67.90834906-21.32861398 84.3338347z" fill="#F3C67A" p-id="2489"></path><path d="M2098.50707141-1042.21668513c5.8837551-28.43815255 10.29657191-56.87630701 17.65126721-85.06930289-53.68927183-4.65797349-23.53502233 54.66989861-17.65126721 85.06930289z" fill="#F8E47F" p-id="2490"></path><path d="M1783.72613583-237.61307805c-20.59314574 59.81818358-34.32190957 117.42996075-6.86438191 178.4739279A593.76902516 593.76902516 0 0 0 1883.50482744 83.78708464a956.11032071 956.11032071 0 0 1 68.15350574 83.5983646c5.39344363-28.92846596 5.63859839-58.10208866 9.80625852-87.27571129a167.93219738 167.93219738 0 0 0 6.12891373-50.99255193c-2.94187849-9.80626042-24.51564915-20.83830244-32.60581457-27.70268245A494.97095845 494.97095845 0 0 1 1806.2805333-141.02141974a140.71982639 140.71982639 0 0 1-22.55439747-96.59165831z" fill="#EE4358" p-id="2491"></path><path d="M1796.96458627-295.96032144a171.60954405 171.60954405 0 0 0 27.94783916 185.82862128 833.53207495 833.53207495 0 0 0 144.8874884 135.32638276 401.81149014 401.81149014 0 0 1 8.0901635-70.35991415 49.03129831 49.03129831 0 0 0-1.9612517-36.5283161 254.22728182 254.22728182 0 0 0-25.98658934-27.94784103c-35.79284789-37.99925628-73.54694746-73.54694746-108.11401182-111.79136041a378.52162451 378.52162451 0 0 1-44.8636382-74.52757235z" fill="#C32164" p-id="2492"></path><path d="M1814.37069677-359.7010104a69.37928735 69.37928735 0 0 0-8.58047689 83.84352129 320.17437917 320.17437917 0 0 0 50.25707992 70.85022569c39.71535127 45.59910831 87.27571127 84.08867606 125.52012426 130.66841109l5.39344362-49.03130016c1.96125171-17.40611054 8.0901635-29.90909277-3.6773467-42.1669164-19.61251893-20.59314574-44.86363819-37.50894289-66.19225405-56.38599362a375.08943257 375.08943257 0 0 1-102.72057016-137.77794789z" fill="#EE4358" p-id="2493"></path><path d="M1868.79543873-487.18238637c-38.9798831 38.73472638-70.11475744 85.80477298-49.03129834 142.19076471a320.41953586 320.41953586 0 0 0 99.53353497 122.57824769c23.28986755 20.10283234 47.56035999 39.22503788 70.60507078 59.57302688 1.4709383-15.44485883 1.22578159-31.62518778 4.16766014-46.57973319 1.96125171-10.54172861 11.52235542-36.03800459 7.35469344-45.59910831s-30.64456096-22.55439747-38.24441112-29.41877934a318.70344089 318.70344089 0 0 1-33.09612797-32.36065598 255.45306534 255.45306534 0 0 1-61.2891219-170.38376246z" fill="#C32164" p-id="2494"></path><path d="M1888.65311436-577.39997616a246.87258843 246.87258843 0 0 0-6.3740685 180.92549109 363.56707908 363.56707908 0 0 0 116.69449063 142.9262367c5.14828693-31.13487435 8.58047691-62.26974874 12.50298033-93.6497817 2.20640839-16.91579714 3.67734672-21.81892737-8.33532022-33.83159426s-21.08345917-22.30924077-31.13487436-34.56706628a409.65649885 409.65649885 0 0 1-83.35320788-161.80328555z" fill="#EE4358" p-id="2495"></path><path d="M1903.36250307-691.6429017a215.24740064 215.24740064 0 0 0 6.37406853 176.02236278 488.84204663 488.84204663 0 0 0 103.70119693 147.09389491 861.72507083 861.72507083 0 0 0 9.56110371-86.7853979c0-15.19970214-10.05141712-21.81892737-18.63189403-35.30253637s-14.7093887-24.51564915-21.81892736-36.03800265a819.06784103 819.06784103 0 0 1-79.18554778-164.99032077z" fill="#C32164" p-id="2496"></path><path d="M1925.91690052-800.49238362c-31.38003107 19.12220555-35.30253446 49.03129831-27.94783913 82.86289446a433.19152121 433.19152121 0 0 0 34.56706438 94.3852499 845.29958517 845.29958517 0 0 0 45.84426496 84.08867608c14.95454544 24.51564915 34.32190957 49.03129831 46.82488993 73.54694745a656.77424399 656.77424399 0 0 0 10.29657189-84.82414616 65.45678393 65.45678393 0 0 0-7.84500679-46.82488989c-6.1289118-13.23845041-13.97392053-24.51564915-20.59314575-38.24441299a1308.64535585 1308.64535585 0 0 1-81.14679949-164.99031885z" fill="#EE4358" p-id="2497"></path><path d="M1963.1806886-938.76064492c-34.32190957 44.37332479-24.51564915 98.06259658-3.67734858 147.09389493a394.94711012 394.94711012 0 0 0 37.99925627 70.11475746 376.07005939 376.07005939 0 0 0 49.03129831 66.92772223c2.94187849-24.51564916 6.61922522-50.99255001 9.56110372-76.9791394s-24.51564915-49.03129831-36.77347467-68.39866052c-30.88971766-44.37332479-57.36661852-84.33383277-56.14083505-138.7585747z" fill="#F8E47F" p-id="2498"></path><path d="M1940.38113448-888.2584083c-35.54769117 50.7473933-12.01266883 106.64307353 14.464232 156.16468522s55.40536682 105.90760534 81.1467995 159.84203383c1.4709383-13.72876383 2.4515651-27.70268436 4.41281678-41.18629154a130.91356787 130.91356787 0 0 0 5.88375515-43.63785464c-2.94187849-9.56110371-16.42548562-19.85767564-22.06408407-28.1929978l-24.51564915-37.01862942a318.70344089 318.70344089 0 0 1-59.32787021-165.97094565z m61.28912195-112.77198534a113.50745545 113.50745545 0 0 0-38.73472451 59.08271352 122.57824574 122.57824574 0 0 0 13.97391863 73.54694748 1220.14386298 1220.14386298 0 0 0 78.20492097 123.55887255c5.39344363-22.30924077 5.8837551-47.31520329 9.31594701-70.35991416a78.94039106 78.94039106 0 0 0 2.2064084-18.63189214c-1.4709383-9.31594705 0-6.61922522-10.05141521-12.01266881a109.09463863 109.09463863 0 0 1-29.17362265-24.51564917c-29.17362267-35.79284789-29.90909277-86.29508449-25.74143264-130.66840927z m51.72802008-95.61103343c-29.17362267 12.50298033-26.23174415 66.19225214-20.10283236 90.95305991A126.99106256 126.99106256 0 0 0 2079.63002256-927.97375959a275.06558427 275.06558427 0 0 0 7.35469342-41.67660488c0-15.44485883-7.84500681-24.51564915-14.21907533-38.24441106a199.55738511 199.55738511 0 0 1-19.36736415-89.23696491z" fill="#F3C67A" p-id="2499"></path><path d="M2085.26862099-1115.27331918c-15.93517227 0-26.47690085 0-31.87034448 17.1609538a79.43070448 79.43070448 0 0 0 2.94187851 44.61848152 231.91804109 231.91804109 0 0 0 30.15424756 75.01788575 185.33830788 185.33830788 0 0 0 7.8450087-71.83085054c-4.65797349-19.85767564-18.63189404-44.86363819-9.07079029-64.96647053z" fill="#F3C67A" p-id="2500"></path><path d="M2033.54060087-1063.54530098c-57.36661852 64.47615713-45.59910831 183.13189947 34.56706628 223.09240939 2.94187849-20.10283234 5.39344363-40.20566467 7.84500681-60.55365374a93.40462309 93.40462309 0 0 0 3.18703518-27.70268437c-2.20640839-5.63859839-16.91579714-15.44485883-21.32861584-21.08345724a137.77794788 137.77794788 0 0 1-24.27049243-113.75261404z" fill="#F8E47F" p-id="2501"></path><path d="M1662.86398509 1690.54273563a315.51640565 315.51640565 0 0 0 117.67511556 50.25708181 94.38524992 94.38524992 0 0 0 66.92772224-9.31594703A102.72057012 102.72057012 0 0 0 1883.50482744 1673.13662509a289.77497491 289.77497491 0 0 1-129.68778437 7.35469533 372.88302418 372.88302418 0 0 1-63.00521885-12.74813896c-2.4515651 0-14.95454544-6.37406851-17.16095378-5.14828501s-2.20640839 6.86438193-3.67734672 9.56110183a88.99180628 88.99180628 0 0 0-7.10953863 18.38673735z" fill="#EE4358" p-id="2502"></path><path d="M1673.65087044 1664.06583477c78.69523438 19.61251893 265.50448057 61.28912387 265.50448055-71.83085244a413.57900225 413.57900225 0 0 1-161.80328365 25.74143074c-12.74813701-1.22578159-24.51564915-2.69672179-37.7541015-4.6579716a249.56931024 249.56931024 0 0 0-39.96050796-9.80626042c-8.58047696 0-5.63859839-1.4709383-10.05141522 7.35469532a142.6810781 142.6810781 0 0 0-6.12891184 20.59314382 357.92847874 357.92847874 0 0 0-9.80626038 32.60581458z" fill="#C32164" p-id="2503"></path><path d="M1693.50854605 1601.55092934c76.24366928 20.83830244 318.70344089 38.24441297 277.51714939-99.53353683A305.46499043 305.46499043 0 0 1 1808.4869417 1550.55837933a358.66394886 358.66394886 0 0 1-80.90164277-10.54173053c-12.25782553-2.69672186-10.54172861-4.16766013-15.69001553 5.14828693a173.57079577 173.57079577 0 0 0-5.88375704 20.10283232 263.05291547 263.05291547 0 0 0-12.50298031 36.28316129z" fill="#EE4358" p-id="2504"></path><path d="M2013.43776853 1404.9354227c10.05141712 145.13264321-199.06707171 157.88078025-298.60060662 130.1780978 3.43218999-15.19970214 10.05141712-29.90909277 14.7093887-45.10879488a117.92027225 117.92027225 0 0 1 6.61922523-19.85767566c5.14828693-10.78688532 0-8.0901635 12.99329374-9.31594701 30.64456096-3.43218999 62.76006212-1.22578159 93.64977978-3.18703523a918.35622114 918.35622114 0 0 0 96.59165834-11.52235541c26.72205756-4.90313023 62.02459202-14.46423391 74.03726083-41.18628961z" fill="#C32164" p-id="2505"></path><path d="M1738.61734094 1459.36016272a167.44188395 167.44188395 0 0 0 12.01266885-37.01862948c1.71609501-4.90313023 3.43218999-17.40611054 7.35469338-20.83830243s12.25782553-2.69672186 18.38673735-3.18703331c31.87034447-2.94187849 63.25037553-1.71609501 95.12072002-2.94187851 55.89568022-1.96125171 127.48137597 0 167.19672725-46.08941976a120.61699407 120.61699407 0 0 1-39.47019651 73.54694747A173.32564097 173.32564097 0 0 1 1914.88485852 1452.49578081a1409.15951757 1409.15951757 0 0 1-176.26751758 6.86438191z" fill="#EE4358" p-id="2506"></path><path d="M2069.33344872 1254.89964933a141.4552965 141.4552965 0 0 1-27.94783913 92.17884146A143.17139152 143.17139152 0 0 1 1957.0517749 1389.24540719c-65.21162722 10.29657191-131.64903607 5.14828693-196.12519319 9.31594703a222.11178258 222.11178258 0 0 0 17.65126723-62.51490736 240.00820651 240.00820651 0 0 0 149.0551466 2e-8 392.25038833 392.25038833 0 0 0 141.70045318-81.14679755z" fill="#C32164" p-id="2507"></path><path d="M2102.42957479 1148.7468873c22.30924077 118.65574234-134.59091458 189.0156565-231.42772765 196.1251932a318.70344089 318.70344089 0 0 1-95.12072-7.59985012l13.97392051-43.39269991a117.67511554 117.67511554 0 0 1 8.09016351-24.51564914c4.65797349-6.61922522 0-3.67734672 9.80626044-5.39344171s26.72205756 0 39.22503785 0 26.72205756-2.69672179 39.96050993-4.90313021a428.04323622 428.04323622 0 0 0 147.09389487-50.50223852 235.35023299 235.35023299 0 0 0 68.39866054-59.81818359z" fill="#EE4358" p-id="2508"></path><path d="M1798.43552455 1265.68653462c8.58047696-25.98658746 14.70938874-52.4634902 24.51564919-78.45007766 2.69672179-8.0901635 4.41281682-33.83159616 10.29657382-38.48956967s35.30253446-2.69672179 44.37332478-3.18703331a600.14309364 600.14309364 0 0 0 164.50000543-24.51565107 182.88674277 182.88674277 0 0 0 77.22429607-51.2377067c10.54172861 122.57824574-133.85544447 171.60954405-231.4277296 188.77049978a669.03206758 669.03206758 0 0 1-89.48211969 7.10953863z" fill="#C32164" p-id="2509"></path><path d="M2133.07413767 969.53749121c2.20640839 56.38599363-4.41281682 109.09463863-58.10208863 140.47466969-44.86363819 25.98658746-101.00447511 28.19299586-151.26155691 32.11550119-30.88971766 2.4515651-61.53428053 2.94187852-92.1788415 6.6192252a197.35097673 197.35097673 0 0 1 9.31594701-37.26378617 167.44188395 167.44188395 0 0 1 10.05141714-35.79284791c7.84500681-11.52235542 53.68927183-9.56110371 69.62444405-11.76751211a406.46946366 406.46946366 0 0 0 150.28092821-42.1669164 308.89718047 308.89718047 0 0 0 62.26975063-52.21833349z" fill="#EE4358" p-id="2510"></path><path d="M2150.23509151 875.1522413c2.4515651 55.40536682-10.29657191 103.70119691-58.83755871 136.06185477a349.83831522 349.83831522 0 0 1-149.05514661 49.03129833c-29.90909277 3.92250341-59.57302693 8.58047691-89.48211969 10.78688532l9.31594701-37.26378808a112.77198724 112.77198724 0 0 1 8.58047689-33.58643946c5.8837551-7.59985203 23.04471085-6.1289118 33.58643951-8.09016353 14.46423391-2.20640839 28.92846596-5.39344363 43.14754317-8.33532022a405.97915216 405.97915216 0 0 0 143.90685972-51.97317681 210.34427044 210.34427044 0 0 0 58.83755871-56.63115032z" fill="#C32164" p-id="2511"></path><path d="M2162.24776035 787.63137331A147.09389488 147.09389488 0 0 1 2104.14567171 921.97713118a377.54099765 377.54099765 0 0 1-144.39717497 58.10208866 885.26009507 885.26009507 0 0 1-87.520868 15.93517223c5.14828693-15.44485883 8.58047691-32.85096935 12.25782553-49.03129833 1.4709383-5.63859839 1.96125171-21.57377065 6.61922519-24.51564915a110.07526543 110.07526543 0 0 1 24.51564917-3.18703329 428.5335496 428.5335496 0 0 0 93.4046231-26.96721428 352.04472365 352.04472365 0 0 0 153.22280862-104.68182371z" fill="#EE4358" p-id="2512"></path><path d="M2179.40871418 690.54940351a143.17139152 143.17139152 0 0 1-58.10208864 139.73919959 437.60433994 437.60433994 0 0 1-144.15201829 72.07600916 263.54322886 263.54322886 0 0 1-87.03055458 19.36736415 403.77274374 403.77274374 0 0 1 17.40611053-75.75335776c3.1870352-10.29657191 0-8.58047696 11.52235541-12.25782363 6.1289118-2.20640839 12.25782551-3.1870352 18.38673736-4.9031302 12.50298033-3.43218999 24.51564915-7.10953865 37.75409957-10.78688533a546.20866514 546.20866514 0 0 0 150.77124353-61.28912384 107.62370033 107.62370033 0 0 0 53.44411511-66.19225214z" fill="#C32164" p-id="2513"></path><path d="M2175.48621075 618.96370779a114.24292555 114.24292555 0 0 1-8.82563361 94.63040657 183.3770562 183.3770562 0 0 1-73.54694744 60.79880853 878.64086796 878.64086796 0 0 1-182.39643131 58.34724531 318.70344089 318.70344089 0 0 0 8.33532022-41.43144626c0-3.92250343 0-15.44485883 3.92250531-18.38673733s16.91579714-2.69672186 22.06408405-3.67734673A509.92550387 509.92550387 0 0 0 2037.46310427 741.54195353a278.00746277 278.00746277 0 0 0 138.02310648-122.57824574z" fill="#EE4358" p-id="2514"></path><path d="M2190.19559949 531.19768308a196.12519322 196.12519322 0 0 1-54.4247419 143.1713915 307.67139884 307.67139884 0 0 1-128.21684418 78.69523437 650.40017357 650.40017357 0 0 1-85.55961626 21.08345725 352.04472365 352.04472365 0 0 1 6.12891178-35.79284786 147.09389488 147.09389488 0 0 1 7.35469533-39.22503793c6.37406851-10.78688532 21.81892737-9.56110371 33.83159618-12.50298031s23.28986755-6.86438193 35.05737777-9.80626042a262.56260396 262.56260396 0 0 0 133.85544447-73.54694742 402.54696026 402.54696026 0 0 0 51.97317681-72.07600918z" fill="#C32164" p-id="2515"></path><path d="M2204.65983342 406.41302892a253.24665692 253.24665692 0 0 1-36.52831795 160.33234535 284.1363746 284.1363746 0 0 1-132.3845062 100.5141617 433.92699131 433.92699131 0 0 1-98.06259661 24.51564912c1.96125171-15.93517223 5.8837551-68.39866055 17.89642396-76.24366926a188.5253431 188.5253431 0 0 1 40.20566465-8.8256336 264.52385568 264.52385568 0 0 0 37.99925629-14.70938873 343.21909004 343.21909004 0 0 0 129.19747098-105.90760532 272.85917588 272.85917588 0 0 0 41.67660488-79.67585926z" fill="#EE4358" p-id="2516"></path><path d="M2211.27905863 337.27889828a278.49777618 278.49777618 0 0 1-50.99254999 154.93890173 307.18108545 307.18108545 0 0 1-122.57824766 98.06259851 325.32266609 325.32266609 0 0 1-85.55961629 24.51564915c4.16766013-18.14158063 0-52.70864501 11.76751212-66.19225403a168.17735405 168.17735405 0 0 1 40.2056647-18.87704885c12.74813701-5.8837551 24.51564915-11.03204202 37.99925626-16.91579904a309.87780726 309.87780726 0 0 0 122.57824769-95.6110315 353.76081866 353.76081866 0 0 0 46.57973317-79.92101597z" fill="#C32164" p-id="2517"></path><path d="M2219.36922216 213.96518243c2.20640839 63.49553225-1.22578159 124.29434076-36.03800456 179.69970755a343.21909004 343.21909004 0 0 1-130.66840932 114.97839565c-29.90909277 16.67064235-61.04396715 29.90909277-92.17884146 43.88301138 2.94187849-13.48360711 3.1870352-27.21237097 5.63859841-40.94113285a117.42996075 117.42996075 0 0 1 7.3546953-39.22503979c6.86438193-7.84500681 31.13487435-12.99329371 40.69597809-17.65126725a374.59912108 374.59912108 0 0 0 38.24441297-22.79955415A418.23697579 418.23697579 0 0 0 2177.69261916 300.26026687a435.39792962 435.39792962 0 0 0 41.676603-86.29508444z" fill="#EE4358" p-id="2518"></path><path d="M2229.91095077 140.90854646c0 113.50745545-84.08867606 224.56334768-174.06110914 286.58793972A475.35843949 475.35843949 0 0 1 1972.25147893 471.86981286a234.85991959 234.85991959 0 0 1 12.74813704-80.16617458 270.89792417 270.89792417 0 0 1 54.91505341-62.26974872c42.65722979-40.20566467 87.03055459-78.69523438 128.70715946-120.12668065a746.99183188 746.99183188 0 0 0 61.28912193-68.39866245z" fill="#C32164" p-id="2519"></path><path d="M2229.91095077 27.89140443c39.960508 60.06334031 2.20640839 113.99776883-41.18628959 160.08718864s-90.95305801 86.0499297-136.06185289 128.95231615a934.78170484 934.78170484 0 0 0-71.09538423 75.01788576 183.3770562 183.3770562 0 0 1 5.63860031-44.37332479 178.96423937 178.96423937 0 0 1 7.59985011-42.90238649 292.71685151 292.71685151 0 0 1 57.12146372-62.51490544c42.90238649-42.90238649 90.46274649-82.37258107 129.19747097-129.44262766a208.38301874 208.38301874 0 0 0 48.7861416-84.82414617z" fill="#EE4358" p-id="2520"></path><path d="M2240.697838-59.62946356a257.90463047 257.90463047 0 0 1-49.03130023 162.78391045A1005.14161902 1005.14161902 0 0 1 2064.67547522 226.71331946a959.7876674 959.7876674 0 0 0-72.32116394 75.75335585 263.78838556 263.78838556 0 0 1 4.16766013-41.676603 214.02161715 214.02161715 0 0 1 4.90312831-43.3926999 182.39643129 182.39643129 0 0 1 56.38599358-69.62444403 1395.67591043 1395.67591043 0 0 0 129.44262769-126.01043577 439.32043491 439.32043491 0 0 0 53.44411701-81.39195617z" fill="#C32164" p-id="2521"></path><path d="M1603.29095626 1661.36911296c-75.26304246 1.4709383-245.15649151 18.87705075-209.85395706-104.92697853 30.88971766 33.09612606 85.80477298 47.07004658 128.7071595 57.85693192 22.06408404 5.39344363 44.12816811 9.80626042 66.43740881 14.21907723 11.03204202 1.96125171 23.04471085 0 22.55439747 11.52235544a130.66841119 130.66841119 0 0 1-7.84500872 21.32861394z" fill="#EE4358" p-id="2522"></path><path d="M1615.05846837 1633.4212738a976.21315307 976.21315307 0 0 1-160.08718863-42.90238648 171.60954405 171.60954405 0 0 1-65.7019406-41.18629149c-21.57377065-24.51564916-7.10953862-46.57973319 5.39344357-69.86960076a356.94785387 356.94785387 0 0 0 133.61028779 88.74665149 443.24293834 443.24293834 0 0 0 74.77272907 22.06408405c15.19970214 3.43218999 24.51564915 1.96125171 20.10283233 19.61251896-1.71609501 7.84500681-5.8837551 15.93517223-8.09016353 23.53502423z" fill="#C32164" p-id="2523"></path><path d="M1629.76785902 1594.93170412c-75.75335585-11.03204202-329.73548291-95.36587478-215.00224394-202.00895021A336.35470812 336.35470812 0 0 0 1653.54803808 1526.04273019a504.77721697 504.77721697 0 0 0-23.78017906 68.88897393z" fill="#EE4358" p-id="2524"></path><path d="M1426.53312531 1292.1634355a102.23025669 102.23025669 0 0 0 13.48360708 134.10060117 301.05217363 301.05217363 0 0 0 128.70715949 79.67586116c11.52235542 3.67734672 23.28986755 6.61922522 35.05737777 9.56110183s35.79284789 11.52235542 46.08942171 7.35469532 21.81892737-53.1989584 24.51564916-65.94709736-6.86438193-14.21907724-19.85767754-18.63189212-24.51564915-8.0901635-35.79284789-12.50298223c-24.51564915-9.56110371-49.03129831-19.12220555-73.54694744-29.90909088-49.52161173-20.59314574-102.96572682-50.2570818-118.65574234-103.70119689z" fill="#C32164" p-id="2525"></path><path d="M1449.08752272 1207.3392893a181.41580448 181.41580448 0 0 0-19.85767564 75.99851258 92.91430969 92.91430969 0 0 0 31.62518779 65.21162724c35.54769117 34.07675289 91.44337138 52.70864501 137.77794788 67.41803564 28.68330927 9.07079035 56.38599363 20.34798902 84.33383468 31.87034445 1.96125171-12.25782553 22.30924077-58.10208863 14.70938871-65.21162724a138.2682613 138.2682613 0 0 0-37.75409957-6.12891371c-12.50298033-2.4515651-24.51564915-7.10953865-36.52831798-10.54172863A269.67214256 269.67214256 0 0 1 1491.25443912 1283.09264516 266.48510737 266.48510737 0 0 1 1449.08752272 1207.3392893z" fill="#EE4358" p-id="2526"></path><path d="M1466.73878998 1098.24465068c-78.69523438 102.23025668 45.35395162 223.09240747 137.28763641 260.84650705a323.60656918 323.60656918 0 0 0 81.39195615 19.85767567c19.61251893 2.20640839 17.16095383 2.4515651 21.81892737-16.18032709a222.35693929 222.35693929 0 0 0 13.9739205-55.16021198c0-9.0707903 2.94187849-2.4515651-3.18703521-7.84500682a119.88152395 119.88152395 0 0 0-21.57377067-8.58047884 388.32788493 388.32788493 0 0 1-36.52831796-14.2190753 622.94264782 622.94264782 0 0 1-75.75335583-40.45082139A289.52981821 289.52981821 0 0 1 1466.73878998 1098.24465068z" fill="#C32164" p-id="2527"></path><path d="M1725.37889054 1302.7051641c8.58047691-38.73472638 20.34798902-75.99851258 31.87034445-114.24292553l-1.4709402 2.94187849c-49.03129831-27.94784105-103.45604025-42.16691641-153.22280673-67.41803563a315.27124896 315.27124896 0 0 1-67.66319237-45.59910638A164.74516212 164.74516212 0 0 1 1489.04803073 1011.21409607C1417.70749166 1124.47639483 1547.64043277 1224.99055653 1639.81927423 1269.11872463a884.52462495 884.52462495 0 0 0 85.55961631 33.58643947z" fill="#EE4358" p-id="2528"></path><path d="M1522.1441587 915.11274929c-27.45752767 50.50223661-43.3926999 103.21088352-1.7160969 151.99702703 35.79284789 42.16691641 96.10134494 63.00521885 147.09389679 82.86289446 30.88971766 12.50298034 62.02459202 24.51564915 92.17883957 38.48956779 3.43218999-12.50298033 5.39344363-24.51564915 8.58047884-38.24441298 1.96125171-8.58047691 12.01266883-31.38003107 8.58047692-38.97988117s-32.11550117-15.19970214-38.97988306-18.14158067c-12.50298033-5.63859839-24.51564915-11.52235542-37.26378622-17.40611054a378.76678121 378.76678121 0 0 1-130.91356787-87.27571126 362.58645226 362.58645226 0 0 1-47.56035807-73.30179266z" fill="#C32164" p-id="2529"></path><path d="M1550.09199787 818.03077949c-28.68330926 52.70864501-34.56706626 103.45604023 4.90313018 152.73249522a382.4441279 382.4441279 0 0 0 134.59091461 98.0625966c28.92846596 14.21907724 58.10208863 27.21237097 87.52086796 39.71535128l9.31594706-37.26378617a122.57824574 122.57824574 0 0 0 8.09016349-42.6572298c-2.4515651-6.37406851-25.74143266-12.01266883-33.34128277-15.69001553-14.70938874-6.86438193-28.68330926-14.46423393-42.9023865-22.06408404a449.86216356 449.86216356 0 0 1-133.11997627-90.21758978 154.2034335 154.2034335 0 0 1-35.05737776-82.61773778z" fill="#EE4358" p-id="2530"></path><path d="M1571.42061368 746.44508375a139.24888809 139.24888809 0 0 0-19.85767754 78.69523433 147.09389488 147.09389488 0 0 0 31.38003108 70.60506896A356.45754045 356.45754045 0 0 0 1711.8952834 989.64032354c27.70268436 13.72876383 55.65052352 26.72205756 84.57898948 38.24441299 3.43218999-10.78688532 19.36736223-63.49553225 13.23845042-70.85022564-2.20640839-2.4515651-13.72876383-3.92250341-17.65126725-5.63860034s-14.46423391-6.37406851-21.32861392-9.80625852c-12.01266883-5.63859839-23.28986755-12.25782553-34.56706629-18.63189401a449.61700684 449.61700684 0 0 1-122.57824577-103.45604025 188.5253431 188.5253431 0 0 1-42.16691639-73.05663402z" fill="#C32164" p-id="2531"></path><path d="M1593.97500924 658.67905904a126.99106256 126.99106256 0 0 0-22.55439556 81.39195617A155.42921706 155.42921706 0 0 0 1606.96830487 815.08890098a437.84949472 437.84949472 0 0 0 122.57824573 102.47541343 455.74591866 455.74591866 0 0 0 83.35320794 39.7153532c1.4709383-14.21907724 6.61922522-27.21237097 9.31594696-41.18629154a131.15872268 131.15872268 0 0 0 6.61922523-38.73472637c-2.94187849-6.37406851-24.51564915-13.97392053-32.85097127-17.65126721-12.50298033-6.1289118-24.51564915-12.99329371-36.77347275-19.85767566A494.48064505 494.48064505 0 0 1 1624.61957213 741.54195353a173.81595248 173.81595248 0 0 1-24.51564918-37.99925628 95.6110315 95.6110315 0 0 1-6.12891371-44.86363821z" fill="#EE4358" p-id="2532"></path><path d="M1617.75519021 594.44805861A116.93964732 116.93964732 0 0 0 1589.31703767 667.99500608a124.53949746 124.53949746 0 0 0 28.43815254 68.88897394 438.83012151 438.83012151 0 0 0 131.89419273 98.0625966c25.74143266 14.21907724 52.9538017 24.51564915 78.6952344 38.73472639a135.08122799 135.08122799 0 0 1 9.80625852-32.11550118 88.50149289 88.50149289 0 0 0 4.6579735-15.69001554c1.4709383-10.78688532 2.20640839-7.84500681-7.59985009-12.50298031-22.79955412-10.78688532-46.33457649-19.12220555-68.64381917-31.13487436a312.32937044 312.32937044 0 0 1-119.14605385-106.64307544A321.4001608 321.4001608 0 0 1 1617.75519021 594.44805861z" fill="#C32164" p-id="2533"></path><path d="M1636.38708422 514.03672925a171.60954405 171.60954405 0 0 0 9.07078843 153.46796342 304.72952035 304.72952035 0 0 0 113.99777075 110.56557882 729.83087805 729.83087805 0 0 0 85.31445767 39.960508c3.67734672-12.99329371 5.63859839-26.23174412 9.07079031-39.47019649 2.4515651-9.07079035 12.01266883-28.68330926 9.31594703-37.99925628s-56.6311503-25.74143266-71.09538236-31.87034257a249.32415353 249.32415353 0 0 1-125.02981085-108.35917042 389.30850982 389.30850982 0 0 1-30.64456098-86.29508448z" fill="#EE4358" p-id="2534"></path><path d="M1662.86398509 399.7938037c-22.79955412 55.89568022-33.83159618 113.01714395-9.8062604 171.60954407a272.36886245 272.36886245 0 0 0 120.12668063 126.74590585 572.4404093 572.4404093 0 0 0 88.99180819 38.24441298c1.22578159-13.48360711 5.14828693-26.96721424 6.86438191-40.45082137a163.51938055 163.51938055 0 0 0 6.12891181-40.20566469c-2.94187849-6.1289118-29.66393604-10.29657191-37.9992563-13.48360713a279.72355778 279.72355778 0 0 1-41.43144817-19.85767565 269.67214256 269.67214256 0 0 1-113.50745543-129.19747097 430.0044879 430.0044879 0 0 1-19.36736224-93.40462309z" fill="#C32164" p-id="2535"></path><path d="M1669.4832103 344.14328019a284.87184471 284.87184471 0 0 0 15.93517224 159.10656182 245.15649151 245.15649151 0 0 0 106.64307351 117.42996076 419.46275927 419.46275927 0 0 0 86.04992969 34.07675286c1.96125171-14.95454544 16.91579716-58.83755873 9.31594511-69.37928734a159.84203383 159.84203383 0 0 0-38.97988118-22.30924074c-12.25782553-6.86438193-24.51564916-13.23845041-36.77347468-20.34798905-46.08941981-26.96721424-90.7079013-56.87630701-114.24292553-106.8882302a772.73326453 772.73326453 0 0 1-27.94783916-91.68852811z" fill="#EE4358" p-id="2536"></path><path d="M1685.41838254 220.58440762c-14.95454544 62.02459202-23.04471085 122.57824574-1.22578351 182.6415861a271.14308089 271.14308089 0 0 0 114.48808224 131.15872457 697.22506538 697.22506538 0 0 0 93.89493649 51.23770672c3.92250341-13.72876383 5.14828693-28.68330926 8.09016353-42.90238651 4.16766013-19.85767564 7.84500681-22.55439747-11.27719682-32.85096936a408.43071725 408.43071725 0 0 1-69.86960077-47.56035999 385.38600641 385.38600641 0 0 1-104.68182179-147.09389683c-12.99329371-30.88971764-19.61251893-63.98584372-29.41877937-94.6304047z" fill="#C32164" p-id="2537"></path><path d="M1693.50854605 147.52777168c-22.06408404 116.93964732 41.43144629 239.0275797 127.72653267 315.27125088a373.12818089 373.12818089 0 0 0 83.35320788 52.46348828c2.94187852-21.81892737 17.65126725-56.38599363 8.5804769-75.75335585A347.14159344 347.14159344 0 0 0 1858.98917831 367.43314583c-38.9798831-44.37332479-78.94039106-88.50149291-114.24292556-135.81669617a637.40687985 637.40687985 0 0 1-51.2377067-84.08867798z" fill="#EE4358" p-id="2538"></path><path d="M1722.6821687 43.82657667A93.64977982 93.64977982 0 0 0 1687.37963425 128.65072284a226.27944267 226.27944267 0 0 0 40.69597807 81.63711096 1589.83985385 1589.83985385 0 0 0 125.02981088 150.52608682 983.077535 983.077535 0 0 1 63.98584373 85.55961628 237.5566414 237.5566414 0 0 0 4.90313022-86.04992968c-5.88375508-24.51564915-34.81222108-50.50223661-50.99255001-69.37928734C1831.53165063 243.87427329 1785.44223084 202.19767029 1754.06219979 147.77292838a262.80776066 262.80776066 0 0 1-31.38003109-103.94635171z" fill="#C32164" p-id="2539"></path><path d="M1731.99811573-33.1525627a222.60209597 222.60209597 0 0 0 19.12220556 171.60954405c30.64456096 54.66989861 76.97913937 95.8561882 116.44933393 143.41654821a1711.6826295 1711.6826295 0 0 1 62.26974872 81.88226958c-1.47093827-27.94784105 10.78688532-56.14083693 9.56110374-83.84352129a138.75857471 138.75857471 0 0 0-43.63785468-76.24366926 948.75562538 948.75562538 0 0 1-122.57824768-147.09389489 480.01641302 480.01641302 0 0 1-41.18628959-89.7272764z" fill="#EE4358" p-id="2540"></path><path d="M1758.47501659-129.98937771a137.28763637 137.28763637 0 0 0-22.06408405 88.50149478 228.24069438 228.24069438 0 0 0 34.32190959 89.48211966 1187.04773691 1187.04773691 0 0 0 114.48808031 145.13264324c22.55439747 26.96721424 47.56035999 51.48286341 54.17958524 87.27571127 3.1870352-30.15424948 8.82563361-60.06334028 12.2578255-89.97243305a51.23770672 51.23770672 0 0 0-14.21907721-46.08941981c-9.31594705-11.76751214-19.12220555-24.51564915-28.92846597-35.05737969-39.47019455-46.08941982-85.06930286-85.06930286-114.97839563-139.00372951a416.76603746 416.76603746 0 0 1-35.05737778-100.26900689z" fill="#C32164" p-id="2541"></path><path d="M1442.22314081 1743.74169403a205.19598352 205.19598352 0 0 1-147.09389488 11.76751212c86.78539789 73.54694746 191.95753309 11.52235542 280.21387116-24.51564913a209.85395706 209.85395706 0 0 1-66.92772224 5.39344361 220.64084237 220.64084237 0 0 0-66.19225404 7.3546934z m320.41953591 234.8599196c-20.10283236-36.52831798-43.3926999-72.07600915-65.70194066-107.37854364s-41.92175969-69.86960076-63.25037364-105.1721352c55.65052352 55.65052352 138.2682613 125.76528097 128.9523143 212.55067884z" fill="#91ABBC" p-id="2542"></path><path d="M1453.25518284 1863.13290649a467.7585875 467.7585875 0 0 1 128.70715946-132.87481956c-68.15350576 16.42548562-123.31371587 58.83755873-128.70715946 132.87481956z m-93.15946639-114.24292554a1103.20421561 1103.20421561 0 0 1 116.20417725-18.63189405c37.75409958-5.14828693 74.77273095-12.74813701 112.28167381-18.38673542-75.01788574-12.01266883-172.59017085-25.74143266-228.48585106 37.01862947z" fill="#91ABBC" p-id="2543"></path><path d="M1334.8445972 1831.26256202a71.34053906 71.34053906 0 0 0 59.81818551 26.47690083 153.95827681 153.95827681 0 0 0 67.17287897-27.45752574A357.92847874 357.92847874 0 0 0 1515.77008828 1787.62470736c17.16095383-16.18032892 37.26378618-30.64456096 53.44411702-49.03129833a198.82191501 198.82191501 0 0 0-118.41058756 42.4120731 193.42847331 193.42847331 0 0 1-115.95902054 50.25707989z" fill="#91ABBC" p-id="2544"></path></svg>