<?xml version="1.0" standalone="no"?><!DOCTYPE svg PUBLIC "-//W3C//DTD SVG 1.1//EN" "http://www.w3.org/Graphics/SVG/1.1/DTD/svg11.dtd"><svg t="1551082190806" class="icon" style="" viewBox="0 0 1024 1024" version="1.1" xmlns="http://www.w3.org/2000/svg" p-id="2369" xmlns:xlink="http://www.w3.org/1999/xlink" width="200" height="200"><defs><style type="text/css"></style></defs><path d="M834.846008 61.49935H365.465774c-70.197262 0-127.398821 57.201559-127.398821 127.50115v469.891875c0 70.29959 57.099231 127.501149 127.398821 127.50115h469.380234c33.973019 0 66.001799-13.302688 90.048966-37.349856s37.247527-56.075947 37.247526-90.151294V189.0005c0.102328-70.29959-56.996902-127.501149-127.296492-127.50115z m48.298991 597.393025c0 26.912361-21.795943 48.708304-48.708305 48.708305H365.05646c-26.810033 0-48.708304-21.898271-48.708304-48.708305V189.0005c0-26.912361 21.795943-48.708304 48.708304-48.708305h469.380234c26.810033 0 48.708304 21.898271 48.708305 48.708305v469.891875z" fill="#2097d8" p-id="2370"></path><path d="M460.52883 879.921655c0 14.530629-11.767763 26.298391-26.298391 26.298391H144.231838c-14.4283 0-26.298391-11.767763-26.298391-26.298391V589.616069c0-14.530629 11.767763-26.298391 26.298391-26.298391h46.252423v-56.280604h-46.252423c-45.536125 0-82.476666 37.04287-82.476667 82.578995v290.305586c0 45.536125 37.04287 82.578995 82.476667 82.578995h289.998601c45.536125 0 82.476666-37.04287 82.476666-82.578995V833.669232h-56.280604v46.252423zM654.952733 598.416309c-10.539822 0-20.363346-5.935045-25.172779-15.042271l-3.274508-6.344359c-4.40012-7.367643-12.381733-11.870091-20.874987-11.870091-8.493255 0-16.474868 4.502448-20.874988 11.870091l-3.274508 6.344359c-4.707105 9.107225-14.632957 15.04227-25.172779 15.042271-1.534926 0-3.069851-0.102328-4.604776-0.409314l-0.818627-0.102328-0.716299-0.204657c-4.40012-1.432597-8.390926-2.967523-12.177076-4.502448-3.78615-1.534926-7.674628-3.274508-11.767763-5.423404l-0.716298-0.409313-0.61397-0.511642c-9.823524-7.060658-14.223643-19.954032-10.744479-31.41481l2.148896-6.856001c2.046567-8.288598-0.306985-17.088838-6.344359-23.126211-4.604777-4.604777-10.64215-7.162986-17.191167-7.162986-2.046567 0-4.093135 0.204657-6.037373 0.716298l-6.753673 2.148896c-2.660538 0.818627-5.423404 1.22794-8.186269 1.227941-9.107225 0-18.009793-4.604777-23.22854-11.97242l-0.511642-0.61397-0.306985-0.716299c-1.841911-3.683821-3.683821-7.674628-5.423404-11.767762-1.637254-4.093135-3.172179-8.18627-4.502448-12.177076l-0.204657-0.716299-0.102328-0.818627c-2.046567-11.972419 3.990806-24.251824 14.632956-29.777555l6.344359-3.274508c7.367643-4.40012 11.870091-12.381733 11.870091-20.874988 0-8.493255-4.502448-16.474868-11.870091-20.874987l-6.344359-3.274508c-10.64215-5.525732-16.679524-17.805136-14.632956-29.777556l0.102328-0.818627 0.204657-0.716298c1.432597-4.40012 2.967523-8.390926 4.502448-12.177076 1.637254-4.093135 3.479165-8.083941 5.423404-11.870091l0.306985-0.716299 0.409313-0.61397c5.218747-7.367643 14.121315-11.972419 23.22854-11.972419 2.762866 0 5.525732 0.409313 8.18627 1.22794l6.856001 2.148896c1.944239 0.511642 3.990806 0.716299 5.935045 0.716298 6.549016 0 12.58639-2.558209 17.191166-7.060657 6.037374-6.037374 8.493255-14.939942 6.344359-23.126212l-2.148896-6.856001c-3.581493-11.460777 0.818627-24.354152 10.642151-31.414809l0.61397-0.511642 0.716299-0.409314c3.683821-1.841911 7.674628-3.683821 11.767762-5.423403 4.40012-1.841911 8.390926-3.274508 12.279405-4.502449l0.716298-0.204656 0.716299-0.102329c1.534926-0.204657 3.069851-0.409313 4.604777-0.409313 10.539822 0 20.465674 5.935045 25.172779 15.04227l3.274507 6.344359c4.40012 7.367643 12.381733 11.870091 20.874988 11.870091 8.493255 0 16.474868-4.502448 20.874987-11.870091l3.274508-6.344359c4.707105-9.107225 14.632957-15.04227 25.172779-15.04227 1.534926 0 3.069851 0.102328 4.604777 0.409313l0.818627 0.102329 0.716299 0.204656c4.40012 1.432597 8.390926 2.967523 12.177076 4.502449 3.78615 1.534926 7.674628 3.274508 11.767762 5.423403l0.716299 0.409314 0.61397 0.511642c9.925852 7.060658 14.325972 20.056361 10.64215 31.414809l-2.148895 6.753673c-2.046567 8.288598 0.306985 17.088838 6.344359 23.126211 4.604777 4.604777 10.64215 7.162986 17.191166 7.162986 2.046567 0 4.093135-0.204657 6.037374-0.716298l6.856-2.148896c2.660538-0.818627 5.321075-1.22794 8.18627-1.22794 9.107225 0 18.009793 4.604777 23.22854 11.972419l0.511642 0.61397 0.306985 0.716299c1.841911 3.683821 3.683821 7.674628 5.423404 11.767762 1.637254 4.093135 3.172179 8.18627 4.502448 12.177076l0.204657 0.716299 0.102328 0.818627c2.046567 11.972419-3.990806 24.251824-14.632957 29.777555l-6.344359 3.274508c-7.367643 4.40012-11.870091 12.381733-11.870091 20.874988 0 8.493255 4.502448 16.474868 11.870091 20.874987l6.344359 3.274508c10.64215 5.525732 16.679524 17.805136 14.632957 29.879884l-0.102328 0.716299-0.204657 0.716298c-1.432597 4.40012-2.967523 8.390926-4.502448 12.177077-1.534926 3.78615-3.274508 7.572299-5.423404 11.767762l-0.409313 0.716299-0.511642 0.61397c-5.321075 7.469971-14.018987 11.972419-23.330869 11.972419-2.762866 0-5.525732-0.409313-8.083941-1.22794l-6.856001-2.148896c-1.944239-0.511642-3.990806-0.716299-5.935045-0.716299-6.446687 0-12.58639 2.558209-17.191166 7.060658-6.037374 6.037374-8.493255 14.939942-6.344359 23.22854l2.148895 6.753672c3.581493 11.460777-0.818627 24.354152-10.744478 31.41481l-0.613971 0.511642-0.716298 0.306985c-3.683821 1.841911-7.674628 3.683821-11.767763 5.423404-4.093135 1.739582-8.18627 3.172179-12.279404 4.502448l-0.716299 0.204657-0.818627 0.102328c-1.125612 0.511642-2.660538 0.716299-4.195463 0.716299zM605.52813 355.795743c-40.726691 0-73.778755 33.052064-73.778755 73.778755s33.052064 73.778755 73.778755 73.778755 73.778755-33.052064 73.778755-73.778755c0-40.624363-33.052064-73.778755-73.778755-73.778755z" fill="#32c052" p-id="2371" data-spm-anchor-id="a313x.7781069.0.i0" class=""></path></svg>