<?xml version="1.0" standalone="no"?><!DOCTYPE svg PUBLIC "-//W3C//DTD SVG 1.1//EN" "http://www.w3.org/Graphics/SVG/1.1/DTD/svg11.dtd"><svg t="1507942691869" class="icon" style="" viewBox="0 0 1024 1024" version="1.1" xmlns="http://www.w3.org/2000/svg" p-id="3787" xmlns:xlink="http://www.w3.org/1999/xlink" width="200" height="200"><defs><style type="text/css"></style></defs><path d="M892.054 512c0-47.18 20.444-89.599 52.977-118.951 8.877-8.014 14.431-19.558 14.431-32.404 0-7.925-2.115-15.358-5.81-21.762l-72.509-126.34c-7.333-12.741-20.861-21.186-36.367-21.21-4.557 0.001-8.966 0.746-13.089 2.115-14.425 4.813-31.387 7.643-49.009 7.643-0.061 0-0.122 0-0.182 0-77.253 0-141.802-54.261-157.356-126.634-4.254-19.748-21.351-33.782-41.1-33.782h-144.084c-19.748 0-36.847 14.034-41.089 33.759-15.553 72.373-80.101 126.634-157.365 126.634-17.261 0-33.9-2.711-49.477-7.73-3.839-1.287-8.259-2.033-12.853-2.033-15.494 0-29.012 8.46-36.188 21.010l-72.739 126.756c-3.585 6.193-5.698 13.625-5.698 21.551 0 12.845 5.553 24.391 14.393 32.37 32.622 29.401 53.015 71.749 53.015 118.863 0 0.042 0 0.085 0 0.129 0 47.173-20.431 89.595-52.977 118.944-8.873 8.018-14.425 19.569-14.425 32.415 0 7.924 2.113 15.358 5.806 21.762l72.519 126.34c7.329 12.742 20.859 21.189 36.365 21.21-0.018 0-0.013 0-0.004 0 4.571 0 8.97-0.738 13.085-2.098 14.438-4.818 31.398-7.646 49.019-7.646 0.058 0 0.116 0 0.174 0 77.254 0 141.802 54.261 157.356 126.634 4.242 19.748 21.339 33.782 41.089 33.782h144.084c19.748 0 36.847-14.034 41.089-33.759 15.553-72.384 80.101-126.634 157.365-126.634 17.261 0 33.889 2.711 49.477 7.73 4.229 1.366 8.555 2.015 12.819 2.015 15.508-0.035 29.031-8.487 36.246-21.030l72.715-126.727c3.581-6.194 5.695-13.627 5.695-21.553 0-12.848-5.552-24.396-14.387-32.382-32.615-29.398-53.005-71.743-53.005-118.846 0-0.048 0-0.097 0-0.144zM513.201 830.181s-511.391-234.816-215.963-524.717c129.473-74.601 213.772 20.869 213.772 20.869s84.297-95.457 213.772-20.869c295.405 260.16-211.579 524.717-211.579 524.717z" fill="#d81e06" p-id="3788" class="selected"></path><path d="M470.393 676.964c-9.129 0-17.045-5.19-20.959-12.782l-83.098-163.929-34.985 59.105c-4.181 6.967-11.694 11.557-20.279 11.558h-35.348c-13.015 0-23.568-10.55-23.568-23.568 0-13.015 10.55-23.568 23.568-23.568h21.917l50.020-84.499c4.285-6.974 11.872-11.554 20.528-11.554 0.187 0 0.371 0.002 0.558 0.005 8.877 0.298 16.499 5.498 20.257 12.973l81.405 160.569 122.427-241.439c4.042-7.977 12.233-13.375 21.21-12.915 8.955 0.070 17.086 5.207 20.996 13.257l79.619 163.598h32.391c13.015 0 23.568 10.55 23.568 23.568s-10.55 23.568-23.568 23.568h-47.133c-9.262-0.002-17.275-5.346-21.125-13.12l-65.375-134.335-122.003 240.59c-3.973 7.724-11.888 12.915-21.014 12.915-0.002 0-0.003 0-0.005 0z" fill="#9FC53E" p-id="3789"></path></svg>