<?xml version="1.0" standalone="no"?><!DOCTYPE svg PUBLIC "-//W3C//DTD SVG 1.1//EN" "http://www.w3.org/Graphics/SVG/1.1/DTD/svg11.dtd"><svg t="1565333908077" class="icon" viewBox="0 0 1024 1024" version="1.1" xmlns="http://www.w3.org/2000/svg" p-id="1124" width="100" height="100" xmlns:xlink="http://www.w3.org/1999/xlink"><defs><style type="text/css"></style></defs><path d="M874.155198 150.227545c-200.303393-200.303393-523.241517-200.303393-723.54491 0s-200.303393 523.241517 0 723.54491 523.241517 200.303393 723.54491 0S1072.414679 350.530938 874.155198 150.227545zM739.256994 383.233533 467.416675 655.073852c-2.043912 2.043912-4.087824 2.043912-8.175649 2.043912s-6.131737 0-8.175649-2.043912l-165.556886-165.556886c-4.087824-4.087824-4.087824-10.219561 0-14.307385s10.219561-4.087824 14.307385 0l159.42515 159.42515L724.949609 368.926148c4.087824-4.087824 10.219561-4.087824 14.307385 0S743.344819 379.145709 739.256994 383.233533z" p-id="1125" fill="#2aa515"></path></svg>