<?xml version="1.0" standalone="no"?><!DOCTYPE svg PUBLIC "-//W3C//DTD SVG 1.1//EN" "http://www.w3.org/Graphics/SVG/1.1/DTD/svg11.dtd"><svg t="1530503826874" class="icon" style="" viewBox="0 0 1085 1024" version="1.1" xmlns="http://www.w3.org/2000/svg" p-id="2463" xmlns:xlink="http://www.w3.org/1999/xlink" width="211.9140625" height="200"><defs><style type="text/css"></style></defs><path d="M108.503311 0h868.02649c59.676821 0 108.503311 48.82649 108.503312 108.503311v547.941722c0 59.676821-48.82649 108.503311-108.503312 108.503311H108.503311c-59.676821 0-108.503311-48.82649-108.503311-108.503311V108.503311c0-59.676821 48.82649-108.503311 108.503311-108.503311z" fill="#2db2d4" p-id="2464"></path><path d="M957.541722 786.649007H584.561589v183.099337h81.377484c14.919205 0 27.125828 12.206623 27.125828 27.125828s-12.206623 27.125828-27.125828 27.125828h-217.006623c-14.919205 0-27.125828-12.206623-27.125827-27.125828s12.206623-27.125828 27.125827-27.125828h81.377484V786.649007H127.491391C56.964238 786.649007 0 737.822517 0 678.145695v-86.802649h1085.033113V678.145695c0 59.676821-56.964238 108.503311-127.491391 108.503312z" fill="#f4d173" p-id="2465"></path></svg>